<mxfile host="app.diagrams.net" modified="2024-03-27T12:02:26.072Z" agent="Mozilla/5.0 (Windows NT 10.0; Win64; x64) AppleWebKit/537.36 (KHTML, like Gecko) Chrome/123.0.0.0 Safari/537.36" version="24.2.0" etag="c3EbFZbr-3kfOZcne67e" type="github">
  <diagram name="Page-1" id="i_GZ9AwXznU3Gcym0H5u">
    <mxGraphModel>
      <root>
        <mxCell id="0" />
        <mxCell id="1" parent="0" />
      </root>
    </mxGraphModel>
  </diagram>
</mxfile>
